<svg width="1138" height="472" viewBox="0 0 1138 472" fill="none" xmlns="http://www.w3.org/2000/svg">
<g clip-path="url(#clip0_3245_633)">
<path d="M306.898 -44.4292L26.0883 7.57889L26.2849 8.64076L307.095 -43.3673L306.898 -44.4292Z" fill="#B6A6A6" fill-opacity="0.06"/>
<path d="M25.6147 8.04456L10.5309 -202.976L11.6107 -203.044L26.6945 7.97705L25.6147 8.04456Z" fill="#B6A6A6" fill-opacity="0.06"/>
<path d="M321.063 -236.469L25.8721 7.67859L26.5602 8.51077L321.752 -235.637L321.063 -236.469Z" fill="#B6A6A6" fill-opacity="0.06"/>
<path d="M10.4612 -203.313L-135.019 115.193L-134.037 115.642L11.4434 -202.864L10.4612 -203.313Z" fill="#B6A6A6" fill-opacity="0.06"/>
<path d="M25.8201 7.50337L-134.955 114.921L-134.355 115.819L26.4199 8.40131L25.8201 7.50337Z" fill="#B6A6A6" fill-opacity="0.06"/>
<path d="M10.4612 -203.313L-135.019 115.193L-134.037 115.642L11.4434 -202.864L10.4612 -203.313Z" fill="#B6A6A6" fill-opacity="0.06"/>
<path d="M25.8201 7.50337L-134.955 114.921L-134.355 115.819L26.4199 8.40131L25.8201 7.50337Z" fill="#B6A6A6" fill-opacity="0.06"/>
<path d="M10.5485 -203.25L-137.327 119.468L-136.345 119.918L11.5301 -202.8L10.5485 -203.25Z" fill="#B6A6A6" fill-opacity="0.06"/>
<path d="M25.8379 7.57858L-137.275 119.176L-136.666 120.067L26.4475 8.46983L25.8379 7.57858Z" fill="#B6A6A6" fill-opacity="0.06"/>
<path d="M-136.824 119.138L-137.086 120.185L100.566 179.517L100.827 178.469L-136.824 119.138Z" fill="#B6A6A6" fill-opacity="0.06"/>
<path d="M-134.523 114.877L-134.805 115.919L100.571 179.566L100.853 178.524L-134.523 114.877Z" fill="#B6A6A6" fill-opacity="0.06"/>
<path d="M-134.523 114.877L-134.805 115.919L100.571 179.566L100.853 178.524L-134.523 114.877Z" fill="#B6A6A6" fill-opacity="0.06"/>
<path d="M100.19 179.109L10.5645 -202.875L11.6105 -203.145L101.269 178.873L100.19 179.109Z" fill="#B6A6A6" fill-opacity="0.06"/>
<path d="M26.6231 7.78667L25.6333 8.21832L100.193 179.214L101.183 178.782L26.6231 7.78667Z" fill="#B6A6A6" fill-opacity="0.06"/>
<path d="M306.604 -44.1939L100.346 178.66L101.139 179.393L307.396 -43.4603L306.604 -44.1939Z" fill="#B6A6A6" fill-opacity="0.06"/>
<path d="M511.837 81.1254L100.623 178.496L100.872 179.547L512.086 82.1762L511.837 81.1254Z" fill="#B6A6A6" fill-opacity="0.06"/>
<path d="M511.501 81.9845L321.013 -235.677L321.958 -236.251L512.446 81.4445L511.501 81.9845Z" fill="#B6A6A6" fill-opacity="0.06"/>
<path d="M307.316 -44.3092L306.752 -43.3883L511.732 82.1626L512.296 81.2416L307.316 -44.3092Z" fill="#B6A6A6" fill-opacity="0.06"/>
<path d="M100.209 178.622L-68.5203 401.516L-67.6593 402.168L101.07 179.274L100.209 178.622Z" fill="#B6A6A6" fill-opacity="0.06"/>
<path d="M25.8034 7.96361L-68.9352 401.605L-67.8854 401.858L26.8532 8.2163L25.8034 7.96361Z" fill="#B6A6A6" fill-opacity="0.06"/>
<path d="M-68.0937 402.278L-68.2961 401.199L306.402 327.495L306.605 328.541L-68.0937 402.278Z" fill="#B6A6A6" fill-opacity="0.06"/>
<path d="M511.578 81.3922L306.079 327.677L306.909 328.369L512.407 82.0841L511.578 81.3922Z" fill="#B6A6A6" fill-opacity="0.06"/>
<path d="M101.017 178.585L100.384 179.46L306.149 328.479L306.782 327.604L101.017 178.585Z" fill="#B6A6A6" fill-opacity="0.06"/>
<path d="M26.581 7.62475L25.7688 8.3364L306.118 328.36L306.93 327.648L26.581 7.62475Z" fill="#B6A6A6" fill-opacity="0.06"/>
<path d="M307.043 328.001H305.963L306.47 -43.8247H307.549L307.043 328.001Z" fill="#B6A6A6" fill-opacity="0.06"/>
<path d="M692.683 31.6616L511.79 81.1792L512.075 82.2208L692.968 32.7032L692.683 31.6616Z" fill="#B6A6A6" fill-opacity="0.06"/>
<path d="M692.742 32.6462L306.875 -43.2848L307.111 -44.3647L692.945 31.6L692.742 32.6462Z" fill="#B6A6A6" fill-opacity="0.06"/>
<path d="M628.225 -215.226L627.181 -214.951L692.303 32.3129L693.347 32.0378L628.225 -215.226Z" fill="#B6A6A6" fill-opacity="0.06"/>
<path d="M627.284 -215.354L511.372 81.4594L512.378 81.8522L628.29 -214.961L627.284 -215.354Z" fill="#B6A6A6" fill-opacity="0.06"/>
<path d="M157.37 -348.693L25.7275 7.841L26.7405 8.21508L158.383 -348.319L157.37 -348.693Z" fill="#B6A6A6" fill-opacity="0.06"/>
<path d="M709.142 119.039L627.177 -214.99L628.257 -215.26L710.222 118.803L709.142 119.039Z" fill="#B6A6A6" fill-opacity="0.06"/>
<path d="M693.342 32.0436L692.282 32.2492L709.116 119.049L710.176 118.843L693.342 32.0436Z" fill="#B6A6A6" fill-opacity="0.06"/>
<path d="M512.053 81.1444L511.854 82.2058L709.578 119.408L709.777 118.346L512.053 81.1444Z" fill="#B6A6A6" fill-opacity="0.06"/>
<path d="M987.091 39.6149L709.572 118.434L709.867 119.473L987.386 40.6537L987.091 39.6149Z" fill="#B6A6A6" fill-opacity="0.06"/>
<path d="M692.876 31.6303L692.847 32.7098L987.183 40.6901L987.212 39.6106L692.876 31.6303Z" fill="#B6A6A6" fill-opacity="0.06"/>
<path d="M844.401 -74.1361L843.729 -73.2908L986.828 40.51L987.5 39.6647L844.401 -74.1361Z" fill="#B6A6A6" fill-opacity="0.06"/>
<path d="M710.121 119.241L709.243 118.6L843.647 -74.0284L844.525 -73.3872L710.121 119.241Z" fill="#B6A6A6" fill-opacity="0.06"/>
<path d="M843.738 -74.2097L692.528 31.6566L693.147 32.5413L844.357 -73.325L843.738 -74.2097Z" fill="#B6A6A6" fill-opacity="0.06"/>
<path d="M512.209 82.2208L511.737 81.2084L843.85 -74.1971L844.322 -73.2185L512.209 82.2208Z" fill="#B6A6A6" fill-opacity="0.06"/>
<path d="M306.608 327.465L306.37 328.519L357.393 340.026L357.63 338.973L306.608 327.465Z" fill="#B6A6A6" fill-opacity="0.06"/>
<path d="M-68.0936 402.278L-68.2623 401.199L357.424 338.969L357.592 340.049L-68.0936 402.278Z" fill="#B6A6A6" fill-opacity="0.06"/>
<path d="M357.964 339.813L357.052 339.239L511.501 81.4446L512.446 81.9845L357.964 339.813Z" fill="#B6A6A6" fill-opacity="0.06"/>
<path d="M357.221 339.981L100.426 179.446L101 178.535L357.795 339.07L357.221 339.981Z" fill="#B6A6A6" fill-opacity="0.06"/>
<path d="M307.522 -43.931L306.451 -43.7899L356.986 339.559L358.056 339.418L307.522 -43.931Z" fill="#B6A6A6" fill-opacity="0.06"/>
<path d="M306.608 327.465L306.37 328.519L357.393 340.026L357.63 338.973L306.608 327.465Z" fill="#B6A6A6" fill-opacity="0.06"/>
<path d="M-68.0936 402.278L-68.2623 401.199L357.424 338.969L357.592 340.049L-68.0936 402.278Z" fill="#B6A6A6" fill-opacity="0.06"/>
<path d="M357.964 339.813L357.052 339.239L511.501 81.4446L512.446 81.9845L357.964 339.813Z" fill="#B6A6A6" fill-opacity="0.06"/>
<path d="M357.221 339.981L100.426 179.446L101 178.535L357.795 339.07L357.221 339.981Z" fill="#B6A6A6" fill-opacity="0.06"/>
<path d="M307.522 -43.931L306.451 -43.7899L356.986 339.559L358.056 339.418L307.522 -43.931Z" fill="#B6A6A6" fill-opacity="0.06"/>
<path d="M844.651 -73.9073L843.643 -73.5214L923.072 134.068L924.08 133.682L844.651 -73.9073Z" fill="#B6A6A6" fill-opacity="0.06"/>
<path d="M986.676 39.7003L923.1 133.548L923.994 134.154L987.57 40.306L986.676 39.7003Z" fill="#B6A6A6" fill-opacity="0.06"/>
<path d="M709.742 118.352L709.667 119.429L923.497 134.391L923.572 133.314L709.742 118.352Z" fill="#B6A6A6" fill-opacity="0.06"/>
<path d="M693.018 31.6376L692.583 32.6255L923.233 134.383L923.669 133.395L693.018 31.6376Z" fill="#B6A6A6" fill-opacity="0.06"/>
<path d="M923.453 134.428L511.906 82.2545L512.041 81.1746L923.588 133.348L923.453 134.428Z" fill="#B6A6A6" fill-opacity="0.06"/>
<path d="M357.019 339.711L261.859 95.3147L262.872 94.9097L358.031 339.34L357.019 339.711Z" fill="#B6A6A6" fill-opacity="0.06"/>
<path d="M357.019 339.711L261.859 95.3147L262.872 94.9097L358.031 339.34L357.019 339.711Z" fill="#B6A6A6" fill-opacity="0.06"/>
<path d="M305.963 328.102L261.826 95.2134L262.872 95.0109L307.043 327.9L305.963 328.102Z" fill="#B6A6A6" fill-opacity="0.06"/>
<path d="M262.366 95.6521L262.332 94.5722L511.939 81.1746L512.007 82.2545L262.366 95.6521Z" fill="#B6A6A6" fill-opacity="0.06"/>
<path d="M100.966 179.48L100.46 178.501L262.096 94.6397L262.602 95.5846L100.966 179.48Z" fill="#B6A6A6" fill-opacity="0.06"/>
<path d="M262.369 94.7087L-136.952 118.953L-136.886 120.031L262.434 95.7866L262.369 94.7087Z" fill="#B6A6A6" fill-opacity="0.06"/>
<path d="M262.365 94.4517L-134.661 114.967L-134.605 116.045L262.421 95.5301L262.365 94.4517Z" fill="#B6A6A6" fill-opacity="0.06"/>
<path d="M262.365 94.4517L-134.661 114.967L-134.605 116.045L262.421 95.5301L262.365 94.4517Z" fill="#B6A6A6" fill-opacity="0.06"/>
<path d="M321.025 -236.078L261.803 94.999L262.866 95.1892L322.088 -235.888L321.025 -236.078Z" fill="#B6A6A6" fill-opacity="0.06"/>
<path d="M261.927 95.4496L10.6658 -202.672L11.5094 -203.347L262.77 94.7747L261.927 95.4496Z" fill="#B6A6A6" fill-opacity="0.06"/>
<path d="M26.3354 7.50695L25.9618 8.52014L262.138 95.6269L262.512 94.6137L26.3354 7.50695Z" fill="#B6A6A6" fill-opacity="0.06"/>
<path d="M306.45 -44.0159L261.787 94.9023L262.815 95.2329L307.478 -43.6854L306.45 -44.0159Z" fill="#B6A6A6" fill-opacity="0.06"/>
<path d="M522.204 -86.5478L262.022 94.668L262.639 95.5542L522.821 -85.6616L522.204 -86.5478Z" fill="#B6A6A6" fill-opacity="0.06"/>
<path d="M522.812 -86.5543L522.014 -85.8262L709.228 119.259L710.026 118.531L522.812 -86.5543Z" fill="#B6A6A6" fill-opacity="0.06"/>
<path d="M522.787 -86.54L522.171 -85.653L692.524 32.6328L693.14 31.7458L522.787 -86.54Z" fill="#B6A6A6" fill-opacity="0.06"/>
<path d="M512.513 81.7483L511.433 81.6808L521.928 -86.2112L523.008 -86.1437L512.513 81.7483Z" fill="#B6A6A6" fill-opacity="0.06"/>
<path d="M-38.8199 -31.2493L-39.236 -30.2528L262.162 95.601L262.578 94.6045L-38.8199 -31.2493Z" fill="#B6A6A6" fill-opacity="0.06"/>
<path d="M-38.5912 -31.069L-39.4897 -30.4701L100.29 179.267L101.189 178.668L-38.5912 -31.069Z" fill="#B6A6A6" fill-opacity="0.06"/>
<path d="M-38.7659 -31.2143L-39.3175 -30.2859L25.8682 8.44793L26.4198 7.51954L-38.7659 -31.2143Z" fill="#B6A6A6" fill-opacity="0.06"/>
<path d="M468.535 -187.17L261.931 94.7789L262.802 95.4172L469.406 -186.532L468.535 -187.17Z" fill="#B6A6A6" fill-opacity="0.06"/>
<path d="M469.428 -187.127L468.579 -186.459L709.26 119.26L710.109 118.592L469.428 -187.127Z" fill="#B6A6A6" fill-opacity="0.06"/>
<path d="M692.472 32.5113L468.612 -186.406L469.388 -187.182L693.215 31.7351L692.472 32.5113Z" fill="#B6A6A6" fill-opacity="0.06"/>
<path d="M469.498 -186.888L468.432 -186.717L511.394 81.7905L512.46 81.6199L469.498 -186.888Z" fill="#B6A6A6" fill-opacity="0.06"/>
<path d="M455.813 -302.909L454.932 -302.285L692.39 32.4642L693.27 31.8394L455.813 -302.909Z" fill="#B6A6A6" fill-opacity="0.06"/>
<path d="M455.874 -302.655L454.806 -302.498L511.367 81.8424L512.435 81.6852L455.874 -302.655Z" fill="#B6A6A6" fill-opacity="0.06"/>
<path d="M897.216 -261.156L896.139 -261.083L922.941 133.928L924.018 133.854L897.216 -261.156Z" fill="#B6A6A6" fill-opacity="0.06"/>
<path d="M897.196 -261.275L896.162 -260.964L986.643 40.2546L987.678 39.9439L897.196 -261.275Z" fill="#B6A6A6" fill-opacity="0.06"/>
<path d="M710.154 119.174L709.209 118.668L896.221 -261.359L897.2 -260.886L710.154 119.174Z" fill="#B6A6A6" fill-opacity="0.06"/>
<path d="M896.252 -261.45L692.41 31.8024L693.297 32.4188L897.139 -260.834L896.252 -261.45Z" fill="#B6A6A6" fill-opacity="0.06"/>
<path d="M1137.09 -89.7858L923.211 133.536L923.991 134.283L1137.86 -89.0388L1137.09 -89.7858Z" fill="#B6A6A6" fill-opacity="0.06"/>
<path d="M1137.27 -89.6766L986.898 39.6974L987.602 40.5161L1137.97 -88.8579L1137.27 -89.6766Z" fill="#B6A6A6" fill-opacity="0.06"/>
<path d="M1137.09 -89.7858L923.211 133.536L923.991 134.283L1137.86 -89.0388L1137.09 -89.7858Z" fill="#B6A6A6" fill-opacity="0.06"/>
<path d="M1137.27 -89.6766L986.898 39.6974L987.602 40.5161L1137.97 -88.8579L1137.27 -89.6766Z" fill="#B6A6A6" fill-opacity="0.06"/>
<path d="M306.898 -44.4292L26.0883 7.57889L26.2849 8.64076L307.095 -43.3673L306.898 -44.4292Z" fill="#B6A6A6" fill-opacity="0.06"/>
<path d="M25.6147 8.04456L10.5309 -202.976L11.6107 -203.044L26.6945 7.97705L25.6147 8.04456Z" fill="#B6A6A6" fill-opacity="0.06"/>
<path d="M321.063 -236.469L25.8721 7.67859L26.5602 8.51077L321.752 -235.637L321.063 -236.469Z" fill="#B6A6A6" fill-opacity="0.06"/>
<path d="M10.4612 -203.313L-135.019 115.193L-134.037 115.642L11.4434 -202.864L10.4612 -203.313Z" fill="#B6A6A6" fill-opacity="0.06"/>
<path d="M25.8201 7.50337L-134.955 114.921L-134.355 115.819L26.4199 8.40131L25.8201 7.50337Z" fill="#B6A6A6" fill-opacity="0.06"/>
<path d="M10.4612 -203.313L-135.019 115.193L-134.037 115.642L11.4434 -202.864L10.4612 -203.313Z" fill="#B6A6A6" fill-opacity="0.06"/>
<path d="M25.8201 7.50337L-134.955 114.921L-134.355 115.819L26.4199 8.40131L25.8201 7.50337Z" fill="#B6A6A6" fill-opacity="0.06"/>
<path d="M10.5485 -203.25L-137.327 119.468L-136.345 119.918L11.5301 -202.8L10.5485 -203.25Z" fill="#B6A6A6" fill-opacity="0.06"/>
<path d="M25.8379 7.57858L-137.275 119.176L-136.666 120.067L26.4475 8.46983L25.8379 7.57858Z" fill="#B6A6A6" fill-opacity="0.06"/>
<path d="M-136.824 119.138L-137.086 120.185L100.566 179.517L100.827 178.469L-136.824 119.138Z" fill="#B6A6A6" fill-opacity="0.06"/>
<path d="M-134.523 114.877L-134.805 115.919L100.571 179.566L100.853 178.524L-134.523 114.877Z" fill="#B6A6A6" fill-opacity="0.06"/>
<path d="M-134.523 114.877L-134.805 115.919L100.571 179.566L100.853 178.524L-134.523 114.877Z" fill="#B6A6A6" fill-opacity="0.06"/>
<path d="M100.19 179.109L10.5645 -202.875L11.6105 -203.145L101.269 178.873L100.19 179.109Z" fill="#B6A6A6" fill-opacity="0.06"/>
<path d="M26.6231 7.78667L25.6333 8.21832L100.193 179.214L101.183 178.782L26.6231 7.78667Z" fill="#B6A6A6" fill-opacity="0.06"/>
<path d="M306.604 -44.1939L100.346 178.66L101.139 179.393L307.396 -43.4603L306.604 -44.1939Z" fill="#B6A6A6" fill-opacity="0.06"/>
<path d="M511.837 81.1254L100.623 178.496L100.872 179.547L512.086 82.1762L511.837 81.1254Z" fill="#B6A6A6" fill-opacity="0.06"/>
<path d="M511.501 81.9845L321.013 -235.677L321.958 -236.251L512.446 81.4445L511.501 81.9845Z" fill="#B6A6A6" fill-opacity="0.06"/>
<path d="M307.316 -44.3092L306.752 -43.3883L511.732 82.1626L512.296 81.2416L307.316 -44.3092Z" fill="#B6A6A6" fill-opacity="0.06"/>
<path d="M100.209 178.622L-68.5203 401.516L-67.6593 402.168L101.07 179.274L100.209 178.622Z" fill="#B6A6A6" fill-opacity="0.06"/>
<path d="M25.8034 7.96361L-68.9352 401.605L-67.8854 401.858L26.8532 8.2163L25.8034 7.96361Z" fill="#B6A6A6" fill-opacity="0.06"/>
<path d="M-68.0937 402.278L-68.2961 401.199L306.402 327.495L306.605 328.541L-68.0937 402.278Z" fill="#B6A6A6" fill-opacity="0.06"/>
<path d="M511.578 81.3922L306.079 327.677L306.909 328.369L512.407 82.0841L511.578 81.3922Z" fill="#B6A6A6" fill-opacity="0.06"/>
<path d="M101.017 178.585L100.384 179.46L306.149 328.479L306.782 327.604L101.017 178.585Z" fill="#B6A6A6" fill-opacity="0.06"/>
<path d="M26.581 7.62475L25.7688 8.3364L306.118 328.36L306.93 327.648L26.581 7.62475Z" fill="#B6A6A6" fill-opacity="0.06"/>
<path d="M307.043 328.001H305.963L306.47 -43.8247H307.549L307.043 328.001Z" fill="#B6A6A6" fill-opacity="0.06"/>
<path d="M692.683 31.6616L511.79 81.1792L512.075 82.2208L692.968 32.7032L692.683 31.6616Z" fill="#B6A6A6" fill-opacity="0.06"/>
<path d="M692.742 32.6462L306.875 -43.2848L307.111 -44.3647L692.945 31.6L692.742 32.6462Z" fill="#B6A6A6" fill-opacity="0.06"/>
<path d="M628.225 -215.226L627.181 -214.951L692.303 32.3129L693.347 32.0378L628.225 -215.226Z" fill="#B6A6A6" fill-opacity="0.06"/>
<path d="M627.284 -215.354L511.372 81.4594L512.378 81.8522L628.29 -214.961L627.284 -215.354Z" fill="#B6A6A6" fill-opacity="0.06"/>
<path d="M157.37 -348.693L25.7275 7.841L26.7405 8.21508L158.383 -348.319L157.37 -348.693Z" fill="#B6A6A6" fill-opacity="0.06"/>
<path d="M709.142 119.039L627.177 -214.99L628.257 -215.26L710.222 118.803L709.142 119.039Z" fill="#B6A6A6" fill-opacity="0.06"/>
<path d="M693.342 32.0436L692.282 32.2492L709.116 119.049L710.176 118.843L693.342 32.0436Z" fill="#B6A6A6" fill-opacity="0.06"/>
<path d="M512.053 81.1444L511.854 82.2058L709.578 119.408L709.777 118.346L512.053 81.1444Z" fill="#B6A6A6" fill-opacity="0.06"/>
<path d="M987.091 39.6149L709.572 118.434L709.867 119.473L987.386 40.6537L987.091 39.6149Z" fill="#B6A6A6" fill-opacity="0.06"/>
<path d="M692.876 31.6303L692.847 32.7098L987.183 40.6901L987.212 39.6106L692.876 31.6303Z" fill="#B6A6A6" fill-opacity="0.06"/>
<path d="M844.401 -74.1361L843.729 -73.2908L986.828 40.51L987.5 39.6647L844.401 -74.1361Z" fill="#B6A6A6" fill-opacity="0.06"/>
<path d="M710.121 119.241L709.243 118.6L843.647 -74.0284L844.525 -73.3872L710.121 119.241Z" fill="#B6A6A6" fill-opacity="0.06"/>
<path d="M843.738 -74.2097L692.528 31.6566L693.147 32.5413L844.357 -73.325L843.738 -74.2097Z" fill="#B6A6A6" fill-opacity="0.06"/>
<path d="M512.209 82.2208L511.737 81.2084L843.85 -74.1971L844.322 -73.2185L512.209 82.2208Z" fill="#B6A6A6" fill-opacity="0.06"/>
<path d="M306.608 327.465L306.37 328.519L357.393 340.026L357.63 338.973L306.608 327.465Z" fill="#B6A6A6" fill-opacity="0.06"/>
<path d="M-68.0936 402.278L-68.2623 401.199L357.424 338.969L357.592 340.049L-68.0936 402.278Z" fill="#B6A6A6" fill-opacity="0.06"/>
<path d="M357.964 339.813L357.052 339.239L511.501 81.4446L512.446 81.9845L357.964 339.813Z" fill="#B6A6A6" fill-opacity="0.06"/>
<path d="M357.221 339.981L100.426 179.446L101 178.535L357.795 339.07L357.221 339.981Z" fill="#B6A6A6" fill-opacity="0.06"/>
<path d="M307.522 -43.931L306.451 -43.7899L356.986 339.559L358.056 339.418L307.522 -43.931Z" fill="#B6A6A6" fill-opacity="0.06"/>
<path d="M306.608 327.465L306.37 328.519L357.393 340.026L357.63 338.973L306.608 327.465Z" fill="#B6A6A6" fill-opacity="0.06"/>
<path d="M-68.0936 402.278L-68.2623 401.199L357.424 338.969L357.592 340.049L-68.0936 402.278Z" fill="#B6A6A6" fill-opacity="0.06"/>
<path d="M357.964 339.813L357.052 339.239L511.501 81.4446L512.446 81.9845L357.964 339.813Z" fill="#B6A6A6" fill-opacity="0.06"/>
<path d="M357.221 339.981L100.426 179.446L101 178.535L357.795 339.07L357.221 339.981Z" fill="#B6A6A6" fill-opacity="0.06"/>
<path d="M307.522 -43.931L306.451 -43.7899L356.986 339.559L358.056 339.418L307.522 -43.931Z" fill="#B6A6A6" fill-opacity="0.06"/>
<path d="M844.651 -73.9073L843.643 -73.5214L923.072 134.068L924.08 133.682L844.651 -73.9073Z" fill="#B6A6A6" fill-opacity="0.06"/>
<path d="M986.676 39.7003L923.1 133.548L923.994 134.154L987.57 40.306L986.676 39.7003Z" fill="#B6A6A6" fill-opacity="0.06"/>
<path d="M709.742 118.352L709.667 119.429L923.497 134.391L923.572 133.314L709.742 118.352Z" fill="#B6A6A6" fill-opacity="0.06"/>
<path d="M693.018 31.6376L692.583 32.6255L923.233 134.383L923.669 133.395L693.018 31.6376Z" fill="#B6A6A6" fill-opacity="0.06"/>
<path d="M923.453 134.428L511.906 82.2545L512.041 81.1746L923.588 133.348L923.453 134.428Z" fill="#B6A6A6" fill-opacity="0.06"/>
<path d="M357.019 339.711L261.859 95.3147L262.872 94.9097L358.031 339.34L357.019 339.711Z" fill="#B6A6A6" fill-opacity="0.06"/>
<path d="M357.019 339.711L261.859 95.3147L262.872 94.9097L358.031 339.34L357.019 339.711Z" fill="#B6A6A6" fill-opacity="0.06"/>
<path d="M305.963 328.102L261.826 95.2134L262.872 95.0109L307.043 327.9L305.963 328.102Z" fill="#B6A6A6" fill-opacity="0.06"/>
<path d="M262.366 95.6521L262.332 94.5722L511.939 81.1746L512.007 82.2545L262.366 95.6521Z" fill="#B6A6A6" fill-opacity="0.06"/>
<path d="M100.966 179.48L100.46 178.501L262.096 94.6397L262.602 95.5846L100.966 179.48Z" fill="#B6A6A6" fill-opacity="0.06"/>
<path d="M262.369 94.7087L-136.952 118.953L-136.886 120.031L262.434 95.7866L262.369 94.7087Z" fill="#B6A6A6" fill-opacity="0.06"/>
<path d="M262.365 94.4517L-134.661 114.967L-134.605 116.045L262.421 95.5301L262.365 94.4517Z" fill="#B6A6A6" fill-opacity="0.06"/>
<path d="M262.365 94.4517L-134.661 114.967L-134.605 116.045L262.421 95.5301L262.365 94.4517Z" fill="#B6A6A6" fill-opacity="0.06"/>
<path d="M321.025 -236.078L261.803 94.999L262.866 95.1892L322.088 -235.888L321.025 -236.078Z" fill="#B6A6A6" fill-opacity="0.06"/>
<path d="M261.927 95.4496L10.6658 -202.672L11.5094 -203.347L262.77 94.7747L261.927 95.4496Z" fill="#B6A6A6" fill-opacity="0.06"/>
<path d="M26.3354 7.50695L25.9618 8.52014L262.138 95.6269L262.512 94.6137L26.3354 7.50695Z" fill="#B6A6A6" fill-opacity="0.06"/>
<path d="M306.45 -44.0159L261.787 94.9023L262.815 95.2329L307.478 -43.6854L306.45 -44.0159Z" fill="#B6A6A6" fill-opacity="0.06"/>
<path d="M522.204 -86.5478L262.022 94.668L262.639 95.5542L522.821 -85.6616L522.204 -86.5478Z" fill="#B6A6A6" fill-opacity="0.06"/>
<path d="M522.812 -86.5543L522.014 -85.8262L709.228 119.259L710.026 118.531L522.812 -86.5543Z" fill="#B6A6A6" fill-opacity="0.06"/>
<path d="M522.787 -86.54L522.171 -85.653L692.524 32.6328L693.14 31.7458L522.787 -86.54Z" fill="#B6A6A6" fill-opacity="0.06"/>
<path d="M512.513 81.7483L511.433 81.6808L521.928 -86.2112L523.008 -86.1437L512.513 81.7483Z" fill="#B6A6A6" fill-opacity="0.06"/>
<path d="M-38.8199 -31.2493L-39.236 -30.2528L262.162 95.601L262.578 94.6045L-38.8199 -31.2493Z" fill="#B6A6A6" fill-opacity="0.06"/>
<path d="M-38.5912 -31.069L-39.4897 -30.4701L100.29 179.267L101.189 178.668L-38.5912 -31.069Z" fill="#B6A6A6" fill-opacity="0.06"/>
<path d="M-38.7659 -31.2143L-39.3175 -30.2859L25.8682 8.44793L26.4198 7.51954L-38.7659 -31.2143Z" fill="#B6A6A6" fill-opacity="0.06"/>
<path d="M468.535 -187.17L261.931 94.7789L262.802 95.4172L469.406 -186.532L468.535 -187.17Z" fill="#B6A6A6" fill-opacity="0.06"/>
<path d="M469.428 -187.127L468.579 -186.459L709.26 119.26L710.109 118.592L469.428 -187.127Z" fill="#B6A6A6" fill-opacity="0.06"/>
<path d="M692.472 32.5113L468.612 -186.406L469.388 -187.182L693.215 31.7351L692.472 32.5113Z" fill="#B6A6A6" fill-opacity="0.06"/>
<path d="M469.498 -186.888L468.432 -186.717L511.394 81.7905L512.46 81.6199L469.498 -186.888Z" fill="#B6A6A6" fill-opacity="0.06"/>
<path d="M455.813 -302.909L454.932 -302.285L692.39 32.4642L693.27 31.8394L455.813 -302.909Z" fill="#B6A6A6" fill-opacity="0.06"/>
<path d="M455.874 -302.655L454.806 -302.498L511.367 81.8424L512.435 81.6852L455.874 -302.655Z" fill="#B6A6A6" fill-opacity="0.06"/>
<path d="M897.216 -261.156L896.139 -261.083L922.941 133.928L924.018 133.854L897.216 -261.156Z" fill="#B6A6A6" fill-opacity="0.06"/>
<path d="M897.196 -261.275L896.162 -260.964L986.643 40.2546L987.678 39.9439L897.196 -261.275Z" fill="#B6A6A6" fill-opacity="0.06"/>
<path d="M710.154 119.174L709.209 118.668L896.221 -261.359L897.2 -260.886L710.154 119.174Z" fill="#B6A6A6" fill-opacity="0.06"/>
<path d="M896.252 -261.45L692.41 31.8024L693.297 32.4188L897.139 -260.834L896.252 -261.45Z" fill="#B6A6A6" fill-opacity="0.06"/>
<path d="M1137.09 -89.7858L923.211 133.536L923.991 134.283L1137.86 -89.0388L1137.09 -89.7858Z" fill="#B6A6A6" fill-opacity="0.06"/>
<path d="M1137.27 -89.6766L986.898 39.6974L987.602 40.5161L1137.97 -88.8579L1137.27 -89.6766Z" fill="#B6A6A6" fill-opacity="0.06"/>
<path d="M1137.09 -89.7858L923.211 133.536L923.991 134.283L1137.86 -89.0388L1137.09 -89.7858Z" fill="#B6A6A6" fill-opacity="0.06"/>
<path d="M1137.27 -89.6766L986.898 39.6974L987.602 40.5161L1137.97 -88.8579L1137.27 -89.6766Z" fill="#B6A6A6" fill-opacity="0.06"/>
</g>
<defs>
<clipPath id="clip0_3245_633">
<rect width="1524" height="821" fill="white" transform="translate(-386 -349)"/>
</clipPath>
</defs>
</svg>
